<svg width="77" height="33" viewBox="0 0 77 33" fill="none" xmlns="http://www.w3.org/2000/svg">
<path d="M16.323 7.2659C16.323 3.25306 19.7485 0 23.9742 0H28.5649V8.71909C28.5649 11.9294 25.8244 14.5318 22.4439 14.5318V14.5318C19.0634 14.5318 16.323 11.9294 16.323 8.71909V7.2659Z" fill="#231656"/>
<path d="M16.323 24.7039C16.323 20.691 19.7485 17.438 23.9742 17.438H28.5649V26.1571C28.5649 29.3674 25.8244 31.9698 22.4439 31.9698V31.9698C19.0634 31.9698 16.323 29.3674 16.323 26.1571V24.7039Z" fill="#1E90FF"/>
<path d="M0 7.2659C0 3.25306 3.42555 0 7.65118 0H12.2419V8.71909C12.2419 11.9294 9.50144 14.5318 6.12094 14.5318V14.5318C2.74044 14.5318 0 11.9294 0 8.71909V7.2659Z" fill="#FF7562"/>
<path d="M0 24.7039C0 20.691 3.42555 17.438 7.65118 17.438H12.2419V26.1571C12.2419 29.3674 9.50144 31.9698 6.12094 31.9698V31.9698C2.74044 31.9698 0 29.3674 0 26.1571V24.7039Z" fill="#231656"/>
<path d="M50.4844 12.36H47.6592L46.794 10.0293H42.2208L41.3556 12.36H38.5128L43.086 0H45.9288L50.4844 12.36ZM44.5163 3.84927L43.139 7.52197H45.8759L44.5163 3.84927Z" fill="#0F072C"/>
<path d="M59.31 0C60.0633 0 60.752 0.182458 61.3758 0.547373C61.9997 0.912289 62.4941 1.41258 62.8591 2.04823C63.2357 2.67212 63.4241 3.36075 63.4241 4.11413C63.4241 4.85573 63.2357 5.54436 62.8591 6.18002C62.4941 6.80391 61.9939 7.30419 61.3582 7.68088C60.7343 8.0458 60.0516 8.22825 59.31 8.22825H57.35V12.36H54.7014V0H59.31ZM59.31 5.70327C59.7455 5.70327 60.1163 5.55025 60.4224 5.24419C60.7402 4.92636 60.8991 4.54967 60.8991 4.11413C60.8991 3.66681 60.7461 3.29012 60.44 2.98407C60.134 2.67801 59.7573 2.52498 59.31 2.52498H57.35V5.70327H59.31Z" fill="#0F072C"/>
<path d="M72.886 0C73.6394 0 74.328 0.182458 74.9519 0.547373C75.5758 0.912289 76.0702 1.41258 76.4351 2.04823C76.8118 2.67212 77.0001 3.36075 77.0001 4.11413C77.0001 4.85573 76.8118 5.54436 76.4351 6.18002C76.0702 6.80391 75.5699 7.30419 74.9342 7.68088C74.3103 8.0458 73.6276 8.22825 72.886 8.22825H70.926V12.36H68.2775V0H72.886ZM72.886 5.70327C73.3215 5.70327 73.6923 5.55025 73.9984 5.24419C74.3162 4.92636 74.4751 4.54967 74.4751 4.11413C74.4751 3.66681 74.3221 3.29012 74.0161 2.98407C73.71 2.67801 73.3333 2.52498 72.886 2.52498H70.926V5.70327H72.886Z" fill="#0F072C"/>
<path d="M39.6252 31.9791V19.6191H42.2915V31.9791H39.6252Z" fill="#0F072C"/>
<path d="M51.678 32.2087C50.4538 32.2087 49.4238 31.9379 48.588 31.3965C47.764 30.855 47.1813 30.1193 46.84 29.1893L49.0824 27.8827C49.3179 28.4712 49.6475 28.9068 50.0712 29.1893C50.5068 29.4718 51.0659 29.6131 51.7487 29.6131C52.3019 29.6131 52.7257 29.4836 53.02 29.2246C53.3261 28.9656 53.4791 28.6772 53.4791 28.3594C53.4791 28.124 53.4085 27.9239 53.2672 27.7591C53.1259 27.5943 52.8846 27.4412 52.5433 27.3C52.2019 27.147 51.7075 26.9763 51.06 26.7879C49.93 26.4583 49.0295 26.011 48.3585 25.446C47.6875 24.881 47.352 24.0746 47.352 23.0269C47.352 22.2853 47.5345 21.6438 47.8994 21.1023C48.2761 20.5491 48.7705 20.1253 49.3826 19.831C50.0065 19.5367 50.6775 19.3896 51.3955 19.3896C52.3961 19.3896 53.2731 19.6309 54.0265 20.1135C54.7798 20.5844 55.3684 21.2553 55.7922 22.1264L53.4967 23.4331C53.2731 22.9387 52.9906 22.5796 52.6492 22.356C52.3078 22.1205 51.8899 22.0028 51.3955 22.0028C51.0188 22.0028 50.6951 22.1088 50.4244 22.3207C50.1536 22.5208 50.0183 22.7562 50.0183 23.0269C50.0183 23.2506 50.0712 23.4448 50.1772 23.6096C50.2949 23.7627 50.5009 23.9098 50.7952 24.0511C51.1012 24.1923 51.5486 24.3512 52.1371 24.5278C52.9258 24.775 53.6027 25.0516 54.1677 25.3577C54.7445 25.652 55.2154 26.0581 55.5803 26.576C55.957 27.094 56.1453 27.7414 56.1453 28.5183C56.1453 29.2599 55.9511 29.9133 55.5626 30.4783C55.1742 31.0315 54.6386 31.4612 53.9558 31.7673C53.2849 32.0615 52.5256 32.2087 51.678 32.2087Z" fill="#0F072C"/>
<path d="M68.6197 24.3865V19.6191H71.2683V31.9791H68.6197V26.9115H63.2872V31.9791H60.6387V19.6191H63.2872V24.3865H68.6197Z" fill="#0F072C"/>
</svg>
