<svg width="54" height="54" viewBox="0 0 54 54" fill="none" xmlns="http://www.w3.org/2000/svg">
<circle cx="27" cy="27" r="27" fill="white"/>
<path d="M25.1528 20.5553C25.2037 20.659 25.2373 20.77 25.2524 20.8842L25.5308 25.0241L25.669 27.1049C25.6705 27.3189 25.704 27.5315 25.7687 27.7359C25.9356 28.1324 26.3372 28.3844 26.7741 28.3668L33.4313 27.9314C33.7196 27.9266 33.998 28.0344 34.2052 28.2311C34.3779 28.395 34.4894 28.6094 34.5246 28.84L34.5364 28.98C34.2609 32.7947 31.4592 35.9765 27.6524 36.7978C23.8456 37.6191 19.9419 35.8841 18.0607 32.5347C17.5184 31.5616 17.1797 30.4921 17.0644 29.3888C17.0162 29.0622 16.995 28.7323 17.001 28.4024C16.995 24.3125 19.9075 20.7768 23.9843 19.9244C24.475 19.848 24.956 20.1077 25.1528 20.5553Z" fill="#FE7663"/>
<path d="M27.87 17.0008C32.4298 17.1168 36.2623 20.3958 36.9999 24.8123L36.9929 24.8449L36.9728 24.8923L36.9756 25.0224C36.9651 25.1947 36.8986 25.3605 36.7839 25.4945C36.6645 25.634 36.5013 25.729 36.3215 25.7659L36.2119 25.7809L28.5312 26.2786C28.2757 26.3038 28.0213 26.2214 27.8313 26.052C27.673 25.9107 27.5717 25.7201 27.5431 25.5147L27.0276 17.8451C27.0186 17.8191 27.0186 17.791 27.0276 17.7651C27.0346 17.5537 27.1277 17.3538 27.286 17.2102C27.4443 17.0666 27.6546 16.9912 27.87 17.0008Z" fill="#231656"/>
</svg>
