<svg width="42" height="42" viewBox="0 0 42 42" fill="none" xmlns="http://www.w3.org/2000/svg">
<g clip-path="url(#clip0)">
<path d="M0.00892977 29.1441C0.00892977 34.666 4.48501 39.142 10.0068 39.142C15.5287 39.142 20.0047 34.666 20.0047 29.1441C20.0047 23.6222 15.5287 19.1462 10.0068 19.1462C8.87198 19.1462 7.7857 19.3441 6.76877 19.6927C9.01872 6.78863 19.0814 -1.53301 9.75333 5.31587C-0.590097 12.9105 -0.00214801 28.8385 0.00942579 29.1305C0.00942579 29.135 0.00892977 29.1391 0.00892977 29.1441Z" fill="#1E90FF"/>
<path d="M22.0043 29.1441C22.0043 34.666 26.4804 39.142 32.0023 39.142C37.5241 39.142 42.0002 34.666 42.0002 29.1441C42.0002 23.6222 37.524 19.1462 32.0022 19.1462C30.8673 19.1462 29.7811 19.3441 28.7642 19.6927C31.0141 6.78863 41.0768 -1.53301 31.7487 5.31587C21.4053 12.9105 21.9932 28.8385 22.0048 29.1305C22.0048 29.135 22.0043 29.1391 22.0043 29.1441Z" fill="#1E90FF"/>
</g>
<defs>
<clipPath id="clip0">
<rect width="42" height="42" fill="white"/>
</clipPath>
</defs>
</svg>
