<svg width="54" height="54" viewBox="0 0 54 54" fill="none" xmlns="http://www.w3.org/2000/svg">
<circle cx="27" cy="27" r="27" fill="white"/>
<path d="M26.776 36.8374C24.493 35.4273 22.3707 33.7645 20.4479 31.8796C19.0906 30.5338 18.0539 28.8905 17.4172 27.0753C16.2796 23.5352 17.6039 19.4895 21.3012 18.2884C23.2527 17.6755 25.3751 18.0518 27.0071 19.2998C28.6397 18.0532 30.7614 17.677 32.713 18.2884C36.4103 19.4895 37.7435 23.5352 36.6059 27.0753C35.9744 28.8888 34.9439 30.5319 33.5929 31.8796C31.6684 33.7625 29.5464 35.4251 27.2649 36.8374L27.016 37L26.776 36.8374Z" fill="#231656"/>
<path d="M27.0109 37.0001L26.776 36.8375C24.4901 35.4275 22.3649 33.7648 20.439 31.8797C19.0752 30.5357 18.0324 28.8923 17.3905 27.0754C16.2618 23.5353 17.586 19.4896 21.2834 18.2885C23.2349 17.6756 25.3853 18.0521 27.0109 19.3107V37.0001Z" fill="#1E90FF"/>
<path d="M33.2304 24.9992C33.0296 24.9863 32.8425 24.8859 32.7131 24.7216C32.5836 24.5572 32.5232 24.3434 32.5459 24.1302C32.5677 23.4278 32.168 22.7885 31.5517 22.5398C31.1609 22.4331 30.9243 22.0099 31.022 21.5925C31.1148 21.1818 31.4993 20.9265 31.8858 21.0189C31.9346 21.027 31.9816 21.0447 32.0244 21.071C33.2601 21.5466 34.0601 22.8264 33.9965 24.2258C33.9944 24.4379 33.9117 24.64 33.7673 24.7858C33.6229 24.9316 33.4291 25.0087 33.2304 24.9992Z" fill="white"/>
</svg>
