<svg width="54" height="54" viewBox="0 0 54 54" fill="none" xmlns="http://www.w3.org/2000/svg">
<circle cx="27" cy="27" r="27" fill="white"/>
<path d="M31.0755 17H34.4615C35.8637 17 37 18.1459 37 19.56V22.9745C37 24.3886 35.8637 25.5345 34.4615 25.5345H31.0755C29.6732 25.5345 28.537 24.3886 28.537 22.9745V19.56C28.537 18.1459 29.6732 17 31.0755 17Z" fill="#231656"/>
<path fill-rule="evenodd" clip-rule="evenodd" d="M19.5385 17H22.9245C24.3268 17 25.463 18.1459 25.463 19.56V22.9745C25.463 24.3886 24.3268 25.5345 22.9245 25.5345H19.5385C18.1363 25.5345 17 24.3886 17 22.9745V19.56C17 18.1459 18.1363 17 19.5385 17ZM19.5385 28.4655H22.9245C24.3268 28.4655 25.463 29.6114 25.463 31.0255V34.44C25.463 35.8532 24.3268 37 22.9245 37H19.5385C18.1363 37 17 35.8532 17 34.44V31.0255C17 29.6114 18.1363 28.4655 19.5385 28.4655ZM34.4615 28.4655H31.0755C29.6732 28.4655 28.537 29.6114 28.537 31.0255V34.44C28.537 35.8532 29.6732 37 31.0755 37H34.4615C35.8637 37 37 35.8532 37 34.44V31.0255C37 29.6114 35.8637 28.4655 34.4615 28.4655Z" fill="#E7463F"/>
</svg>
