<svg width="152" height="24" viewBox="0 0 152 24" fill="none" xmlns="http://www.w3.org/2000/svg">
<path d="M140 14.656L142.817 16.376L142.051 13.166L144.558 11.019L141.268 10.755L140 7.708V14.656ZM140 17L134.122 20.59L135.72 13.89L130.49 9.41L137.355 8.86L140 2.5L142.645 8.86L149.511 9.41L144.28 13.89L145.878 20.59L140 17Z" fill="#FF8E25"/>
<path d="M108 17L102.122 20.59L103.72 13.89L98.49 9.41L105.355 8.86L108 2.5L110.645 8.86L117.511 9.41L112.28 13.89L113.878 20.59L108 17Z" fill="#FF8E25"/>
<path d="M76 17L70.122 20.59L71.72 13.89L66.49 9.41L73.355 8.86L76 2.5L78.645 8.86L85.511 9.41L80.28 13.89L81.878 20.59L76 17Z" fill="#FF8E25"/>
<path d="M44 17L38.122 20.59L39.72 13.89L34.49 9.41L41.355 8.86L44 2.5L46.645 8.86L53.511 9.41L48.28 13.89L49.878 20.59L44 17Z" fill="#FF8E25"/>
<path d="M12 17L6.12199 20.59L7.71999 13.89L2.48999 9.41L9.35499 8.86L12 2.5L14.645 8.86L21.511 9.41L16.28 13.89L17.878 20.59L12 17Z" fill="#FF8E25"/>
</svg>
