<svg width="90" height="90" viewBox="0 0 90 90" fill="none" xmlns="http://www.w3.org/2000/svg">
<rect width="90" height="90" rx="45" fill="#1E90FF"/>
<path fill-rule="evenodd" clip-rule="evenodd" d="M56.1987 41.1947L57.1591 42.1547C57.9194 42.9013 58.3329 43.9147 58.3329 44.9813C58.3462 46.048 57.9327 47.0627 57.1858 47.8213C57.1769 47.8311 57.168 47.8397 57.1591 47.8483C57.1547 47.8526 57.1502 47.8569 57.1458 47.8613L56.1987 48.808C55.8253 49.1813 55.6119 49.688 55.6119 50.2227V51.5947C55.6119 53.808 53.8112 55.6093 51.5971 55.6093H50.2232C49.6897 55.6093 49.1829 55.8213 48.8094 56.1947L47.8491 57.1547C47.0621 57.9427 46.0351 58.328 45.008 58.328C43.981 58.328 42.9539 57.9427 42.167 57.1693L41.1933 56.1947C40.8198 55.8213 40.313 55.6093 39.7795 55.6093H38.4056C36.1915 55.6093 34.3908 53.808 34.3908 51.5947V50.2227C34.3908 49.688 34.1774 49.1813 33.804 48.7947L32.8436 47.848C31.2831 46.2893 31.2697 43.7413 32.8303 42.1693L33.804 41.1947C34.1774 40.8213 34.3908 40.3147 34.3908 39.768V38.408C34.3908 36.1947 36.1915 34.396 38.4056 34.396H39.7795C40.313 34.396 40.8198 34.1813 41.1933 33.808L42.1537 32.848C43.7142 31.276 46.2618 31.276 47.8357 32.836L48.8094 33.808C49.1829 34.1813 49.6897 34.396 50.2232 34.396H51.5971C53.8112 34.396 55.6119 36.1947 55.6119 38.408V39.7827C55.6119 40.3147 55.8253 40.8213 56.1987 41.1947ZM41.5667 49.5947C41.8868 49.5947 42.1803 49.4747 42.3937 49.248L49.2495 42.396C49.703 41.9427 49.703 41.1947 49.2495 40.7413C48.796 40.2893 48.0624 40.2893 47.6089 40.7413L40.7531 47.5947C40.2996 48.048 40.2996 48.7947 40.7531 49.248C40.9665 49.4747 41.2599 49.5947 41.5667 49.5947ZM47.2621 48.4213C47.2621 49.0747 47.7823 49.5947 48.4358 49.5947C49.0761 49.5947 49.5963 49.0747 49.5963 48.4213C49.5963 47.7827 49.0761 47.2613 48.4358 47.2613C47.7823 47.2613 47.2621 47.7827 47.2621 48.4213ZM41.58 40.408C42.2203 40.408 42.7405 40.928 42.7405 41.568C42.7405 42.2227 42.2203 42.7413 41.58 42.7413C40.9398 42.7413 40.4063 42.2227 40.4063 41.568C40.4063 40.928 40.9398 40.408 41.58 40.408Z" fill="white"/>
</svg>
