<svg width="90" height="90" viewBox="0 0 90 90" fill="none" xmlns="http://www.w3.org/2000/svg">
<rect width="90" height="90" rx="45" fill="#FF7562"/>
<path fill-rule="evenodd" clip-rule="evenodd" d="M45.4352 31.9461C45.6481 31.7549 45.9298 31.6548 46.2181 31.6676C52.3125 31.85 57.4059 36.2742 58.329 42.1873C58.3348 42.2226 58.3348 42.2587 58.329 42.294C58.3488 42.5737 58.2543 42.8498 58.0662 43.061C57.8781 43.2722 57.612 43.4012 57.3268 43.4194L47.0875 44.0946C46.7488 44.1247 46.413 44.0132 46.1625 43.7877C45.912 43.5622 45.7699 43.2435 45.7713 42.91L45.0831 32.8523V32.6864C45.0956 32.4035 45.2223 32.1372 45.4352 31.9461ZM44.7328 46.7246L53.6077 46.156L53.6681 46.1797C54.0492 46.1859 54.4121 46.3404 54.6771 46.6093C54.942 46.8781 55.0873 47.2392 55.0808 47.6131C54.7311 52.7092 50.9948 56.9672 45.9103 58.0642C40.8258 59.1611 35.6135 56.8338 33.117 52.3517C32.3829 51.0608 31.919 49.639 31.7526 48.1699C31.688 47.7345 31.6597 47.2948 31.668 46.8549C31.6849 41.4359 35.543 36.7586 40.9414 35.6125C41.5949 35.4902 42.2501 35.8165 42.5352 36.4062C42.6062 36.5133 42.663 36.6287 42.7043 36.7498C42.8055 38.3119 42.9104 39.8592 43.015 41.4C43.0975 42.6168 43.1798 43.8296 43.2597 45.0424C43.2556 45.3281 43.3005 45.6124 43.3925 45.8835C43.6092 46.4168 44.1484 46.7552 44.7328 46.7246Z" fill="white"/>
</svg>
