<svg width="90" height="90" viewBox="0 0 90 90" fill="none" xmlns="http://www.w3.org/2000/svg">
<rect width="90" height="90" rx="45" fill="#231656"/>
<path fill-rule="evenodd" clip-rule="evenodd" d="M52.6918 40.1757H58.3333C58.3333 35.6461 55.6192 33 51.0207 33H38.9792C34.3807 33 31.6666 35.6461 31.6666 40.118V49.882C31.6666 54.3539 34.3807 57 38.9792 57H51.0207C55.6192 57 58.3333 54.3539 58.3333 49.882V49.4661H52.6918C50.0736 49.4661 47.9511 47.3967 47.9511 44.844C47.9511 42.2913 50.0736 40.222 52.6918 40.222V40.1757ZM52.6919 42.1632H57.3378C57.8876 42.1632 58.3334 42.5977 58.3334 43.1338V46.5079C58.327 47.0414 57.885 47.4723 57.3378 47.4785H52.7986C51.4731 47.4959 50.314 46.6111 50.0134 45.3524C49.8628 44.571 50.0742 43.7647 50.5908 43.1496C51.1074 42.5345 51.8765 42.1734 52.6919 42.1632ZM52.8935 45.7106H53.332C53.895 45.7106 54.3513 45.2657 54.3513 44.7169C54.3513 44.168 53.895 43.7231 53.332 43.7231H52.8935C52.6243 43.72 52.365 43.8222 52.1735 44.0067C51.982 44.1912 51.8742 44.4428 51.8743 44.7053C51.8742 45.256 52.3287 45.7043 52.8935 45.7106ZM37.9838 40.1757H45.5097C46.0726 40.1757 46.5289 39.7308 46.5289 39.182C46.5289 38.6331 46.0726 38.1882 45.5097 38.1882H37.9838C37.4254 38.1882 36.971 38.6261 36.9645 39.1704C36.9645 39.7211 37.4189 40.1694 37.9838 40.1757Z" fill="white"/>
</svg>
